<svg width="50" height="50" viewBox="0 0 50 50" fill="none" xmlns="http://www.w3.org/2000/svg">
<path d="M43.5184 33.6868L29.3173 25.528L36.0765 24.7087C38.7733 24.3673 40.7533 23.0701 42.0505 20.8512L48.127 10.2686C49.0145 8.69824 49.2877 6.78655 48.9121 4.53348C48.7073 3.44108 48.1953 1.97317 47.3077 0.163889L39.9681 1.11974C37.2713 1.42697 35.1889 2.92902 33.6868 5.5576L25.528 19.7588L24.7087 12.9996C24.3673 10.3027 23.0701 8.32273 20.8512 7.02551L10.2686 0.94905C8.69825 0.0614766 6.78655 -0.211623 4.53348 0.163889C3.44108 0.368713 1.97317 0.880774 0.163889 1.76835L1.11974 9.10789C1.42697 11.8048 2.92902 13.8871 5.5576 15.3892L19.7588 23.548L12.9996 24.3673C10.3027 24.7087 8.32273 26.0059 7.02551 28.2249L0.94905 38.8075C0.0614765 40.3778 -0.211623 42.2895 0.163889 44.5425C0.368713 45.6349 0.880775 47.1029 1.76835 48.9121L9.1079 47.9563C11.8048 47.6491 13.8871 46.147 15.3892 43.5184L23.548 29.3173L24.3673 36.0765C24.7087 38.7733 26.0059 40.7533 28.2249 42.0505L38.8075 48.127C40.3778 49.0146 42.2895 49.2877 44.5425 48.9121C45.6349 48.7073 47.1029 48.1953 48.9121 47.3077L47.9563 39.9681C47.6491 37.2713 46.147 35.1889 43.5184 33.6868ZM37.5444 7.77654C38.2954 6.47931 39.2512 5.72829 40.4461 5.5576L44.5425 5.0114C44.8498 6.13794 44.7474 7.12792 44.2353 8.0155L38.1588 18.5981C37.5444 19.6564 36.6568 20.2708 35.5303 20.3732L29.9659 20.9536L37.5444 7.77654ZM11.4975 41.2995C10.7465 42.5967 9.79064 43.3477 8.59583 43.5184L4.49934 44.0646C4.19211 42.9381 4.29452 41.9481 4.80658 41.0605L10.883 30.4779C11.4975 29.4197 12.3851 28.8052 13.5116 28.7028L19.076 28.1224L11.4975 41.2995ZM7.77654 11.4975C6.47931 10.7465 5.72829 9.79064 5.5576 8.59583L5.0114 4.49934C6.13794 4.19211 7.12792 4.29452 8.0155 4.80658L18.5981 10.883C19.6564 11.4975 20.2708 12.3851 20.3732 13.5116L20.9536 19.076L7.77654 11.4975ZM41.0264 44.2694L30.4438 38.193C29.3855 37.5785 28.7711 36.6909 28.6686 35.5644L28.0883 30L41.2654 37.5785C42.5626 38.3295 43.3136 39.2854 43.4843 40.4802L44.0305 44.5767C42.9039 44.8839 41.914 44.7815 41.0264 44.2694Z" fill="#EEEDE3"/>
</svg>
