<svg width="144" height="144" viewBox="0 0 144 144" fill="none" xmlns="http://www.w3.org/2000/svg">
<path d="M127.48 98.6801L85.8801 74.7801L105.68 72.3801C113.58 71.3801 119.38 67.5801 123.18 61.0801L140.98 30.0801C143.58 25.4801 144.38 19.8801 143.28 13.2801C142.68 10.0801 141.18 5.78009 138.58 0.480085L117.08 3.28009C109.18 4.18009 103.08 8.58008 98.6801 16.2801L74.7801 57.8801L72.3801 38.0801C71.3801 30.1801 67.5801 24.3801 61.0801 20.5801L30.0801 2.78009C25.4801 0.180086 19.8801 -0.619915 13.2801 0.480085C10.0801 1.08009 5.78009 2.58008 0.480085 5.18008L3.28009 26.6801C4.18009 34.5801 8.58008 40.6801 16.2801 45.0801L57.8801 68.9801L38.0801 71.3801C30.1801 72.3801 24.3801 76.1801 20.5801 82.6801L2.78009 113.68C0.180085 118.28 -0.619915 123.88 0.480085 130.48C1.08009 133.68 2.58009 137.98 5.18009 143.28L26.6801 140.48C34.5801 139.58 40.6801 135.18 45.0801 127.48L68.9801 85.8801L71.3801 105.68C72.3801 113.58 76.1801 119.38 82.6801 123.18L113.68 140.98C118.28 143.58 123.88 144.38 130.48 143.28C133.68 142.68 137.98 141.18 143.28 138.58L140.48 117.08C139.58 109.18 135.18 103.08 127.48 98.6801ZM109.98 22.7801C112.18 18.9801 114.98 16.7801 118.48 16.2801L130.48 14.6801C131.38 17.9801 131.08 20.8801 129.58 23.4801L111.78 54.4801C109.98 57.5801 107.38 59.3801 104.08 59.6801L87.7801 61.3801L109.98 22.7801ZM33.6801 120.98C31.4801 124.78 28.6801 126.98 25.1801 127.48L13.1801 129.08C12.2801 125.78 12.5801 122.88 14.0801 120.28L31.8801 89.2801C33.6801 86.1801 36.2801 84.3801 39.5801 84.0801L55.8801 82.3801L33.6801 120.98ZM22.7801 33.6801C18.9801 31.4801 16.7801 28.6801 16.2801 25.1801L14.6801 13.1801C17.9801 12.2801 20.8801 12.5801 23.4801 14.0801L54.4801 31.8801C57.5801 33.6801 59.3801 36.2801 59.6801 39.5801L61.3801 55.8801L22.7801 33.6801ZM120.18 129.68L89.1801 111.88C86.0801 110.08 84.2801 107.48 83.9801 104.18L82.2801 87.8801L120.88 110.08C124.68 112.28 126.88 115.08 127.38 118.58L128.98 130.58C125.68 131.48 122.78 131.18 120.18 129.68Z" fill="#BF7F82"/>
</svg>
