<svg width="20" height="20" viewBox="0 0 20 20" fill="none" xmlns="http://www.w3.org/2000/svg">
<path d="M8.05918 3.44663C8.10509 2.96358 8.32945 2.515 8.68843 2.18853C9.0474 1.86206 9.5152 1.68115 10.0004 1.68115C10.4857 1.68115 10.9535 1.86206 11.3124 2.18853C11.6714 2.515 11.8958 2.96358 11.9417 3.44663C11.9693 3.75868 12.0716 4.05948 12.2401 4.32358C12.4086 4.58768 12.6382 4.8073 12.9096 4.96386C13.1809 5.12042 13.486 5.2093 13.7989 5.22298C14.1119 5.23666 14.4235 5.17474 14.7075 5.04246C15.1484 4.84228 15.6481 4.81331 16.1092 4.9612C16.5703 5.10909 16.9599 5.42326 17.2021 5.84255C17.4443 6.26185 17.5219 6.75627 17.4197 7.22961C17.3175 7.70294 17.0428 8.12131 16.6492 8.4033C16.3928 8.58317 16.1836 8.82214 16.0391 9.09998C15.8946 9.37783 15.8192 9.68639 15.8192 9.99955C15.8192 10.3127 15.8946 10.6213 16.0391 10.8991C16.1836 11.177 16.3928 11.4159 16.6492 11.5958C17.0428 11.8778 17.3175 12.2962 17.4197 12.7695C17.5219 13.2428 17.4443 13.7372 17.2021 14.1565C16.9599 14.5758 16.5703 14.89 16.1092 15.0379C15.6481 15.1858 15.1484 15.1568 14.7075 14.9566C14.4235 14.8244 14.1119 14.7624 13.7989 14.7761C13.486 14.7898 13.1809 14.8787 12.9096 15.0352C12.6382 15.1918 12.4086 15.4114 12.2401 15.6755C12.0716 15.9396 11.9693 16.2404 11.9417 16.5525C11.8958 17.0355 11.6714 17.4841 11.3124 17.8106C10.9535 18.137 10.4857 18.3179 10.0004 18.3179C9.5152 18.3179 9.0474 18.137 8.68843 17.8106C8.32945 17.4841 8.10509 17.0355 8.05918 16.5525C8.03163 16.2403 7.92926 15.9394 7.76073 15.6752C7.5922 15.411 7.36249 15.1913 7.09104 15.0347C6.81959 14.8782 6.5144 14.7893 6.20133 14.7757C5.88825 14.7621 5.57651 14.8242 5.29251 14.9566C4.85158 15.1568 4.35195 15.1858 3.89084 15.0379C3.42974 14.89 3.04015 14.5758 2.79791 14.1565C2.55567 13.7372 2.47811 13.2428 2.58031 12.7695C2.68251 12.2962 2.95718 11.8778 3.35084 11.5958C3.60719 11.4159 3.81645 11.177 3.96092 10.8991C4.10538 10.6213 4.1808 10.3127 4.1808 9.99955C4.1808 9.68639 4.10538 9.37783 3.96092 9.09998C3.81645 8.82214 3.60719 8.58317 3.35084 8.4033C2.95773 8.12117 2.68355 7.70296 2.58159 7.22995C2.47964 6.75694 2.55718 6.26291 2.79916 5.84389C3.04114 5.42487 3.43027 5.11078 3.89092 4.96266C4.35157 4.81455 4.85083 4.84299 5.29168 5.04246C5.57564 5.17474 5.8873 5.23666 6.20026 5.22298C6.51322 5.2093 6.81829 5.12042 7.08962 4.96386C7.36096 4.8073 7.59059 4.58768 7.75906 4.32358C7.92754 4.05948 8.02991 3.75868 8.05751 3.44663M12.5 9.99996C12.5 11.3807 11.3807 12.5 10 12.5C8.6193 12.5 7.50001 11.3807 7.50001 9.99996C7.50001 8.61925 8.6193 7.49996 10 7.49996C11.3807 7.49996 12.5 8.61925 12.5 9.99996Z" stroke="#343434" stroke-width="1.66667" stroke-linecap="round" stroke-linejoin="round"/>
</svg>
