<svg width="107" height="209" viewBox="0 0 107 209" fill="none" xmlns="http://www.w3.org/2000/svg">
<path d="M27.4 153.4C24.6 153.4 22.4 157.6 20.8 166H0C3.2 143.6 12.3 132.4 27.5 132.4C29.1 132.4 30.7 132.5 32.2 132.8V61.3C32.2 57.9 31.1 53.8 29.1 48.9C25.3 39.6 23.5 33.3 23.5 30.1C23.5 26.9 23.8 24.2 24.4 22C25 19.8 26.1 17.6 27.5 15.4C30.4 11.1 35.3 5.9 42.2 0L56.4 15.7L50.6 20.8C46.4 24.6 44.3 27.7 44.3 30C44.3 33.7 45.3 37.4 47.4 41L78.7 15.1L89 27.1C96.4 35.8 101.1 43.2 103.3 49.3C105.5 55.4 106.5 60.9 106.5 65.7V113.5C106.5 129.5 101.3 141.6 90.8 149.8L65.4 169.5L53 163.2V208.9H32V153.6C30.4 153.3 28.8 153.1 27.3 153.1L27.4 153.4ZM53 63.8V139.9C56.7 141.9 59 143.1 60.1 143.6C61.2 144.1 62.2 144.7 63.2 145.3L77.7 133.8C82.9 129.6 85.5 122.9 85.5 113.7V65.9C85.5 59.4 82.4 52.3 76.3 44.4L53 63.8Z" fill="#BF7F82"/>
</svg>
