<svg width="82" height="155" viewBox="0 0 82 155" fill="none" xmlns="http://www.w3.org/2000/svg">
<path d="M12 32.9C12 29.8 11.2 27.3 9.89998 25.5C7.99998 23 4.7 19.7 0 15.6L14.1 0C21.4 6.5 26 11.2 28.1 14.1C31.3 18.9 32.9 23.9 32.9 29.2V121.4L51.3 106.6C57.3 101.8 60.4 94 60.4 83.2V53C60.4 45.4 57.7 38.1 52.2 31.1C50.6 29 48.7 26.8 46.7 24.6L38 14.9L53 0.100002L61.6 9.5C68 16.4 72.3 22.1 74.6 26.4C79.1 34.7 81.3 43.5 81.3 52.6V83.1C81.3 100.3 75.8 113.4 64.8 122.6L26.3 154.5L12.2 145.3V32.9H12Z" fill="#BF7F82"/>
</svg>
